<svg xmlns="http://www.w3.org/2000/svg"  viewBox="0 0 48 48" width="48px" height="48px"><path fill="#ef4754" d="M24.104,6.591c-3.749-0.082-6.81,0.011-10.56-0.072c-0.71-0.016-1.616-0.146-2.204,0.254 c-0.686,0.467-0.938,1.343-1.143,2.147c-0.339,1.335-0.183,2.682-0.522,4.017c-0.225,0.883-0.429,1.895,0.088,2.645 c0.388,0.563,1.858,0.251,2.541,0.268c0.683,0.017,0.639-0.022,1.323,0.002c4.708,0.167,7.728-0.575,12.122-0.338 s8.802-0.275,13.19,0.066c0.703,0.055,1.485,0.079,2.026-0.374c0.441-0.37,0.606-0.967,0.743-1.526 c0.566-2.307,1.824-7.387-0.208-7.181c-3.023-0.416-5.113,0.361-8.17,0.294C30.254,6.726,27.179,6.659,24.104,6.591z"/><path fill="#010101" d="M10.872,16.421c-0.615,0-1.209-0.104-1.521-0.555c-0.631-0.917-0.414-2.057-0.16-3.052 c0.158-0.624,0.201-1.253,0.246-1.919c0.047-0.682,0.095-1.386,0.275-2.098c0.187-0.733,0.469-1.84,1.347-2.438 c0.626-0.425,1.463-0.386,2.132-0.354l0.363,0.014c1.871,0.042,3.57,0.037,5.269,0.036c1.706-0.003,3.413-0.006,5.292,0.036 l9.225,0.203c1.263,0.029,2.37-0.094,3.442-0.211c1.518-0.166,2.953-0.322,4.731-0.085c0.448-0.023,0.82,0.123,1.095,0.439 c1.002,1.153,0.316,4.387-0.406,7.327c-0.135,0.552-0.325,1.333-0.915,1.827c-0.682,0.569-1.592,0.55-2.387,0.489 c-2.312-0.181-4.681-0.119-6.971-0.06c-2.031,0.052-4.131,0.105-6.207-0.005c-2.214-0.122-4.06,0.012-6.01,0.151 c-1.856,0.132-3.779,0.27-6.103,0.187c-0.337-0.011-0.489-0.008-0.648-0.002c-0.159,0.003-0.326,0.009-0.67,0.001 c-0.16-0.004-0.368,0.013-0.594,0.029C11.436,16.4,11.151,16.421,10.872,16.421z M12.602,6.987c-0.38,0-0.743,0.039-0.979,0.2 c-0.521,0.355-0.742,1.081-0.94,1.857c-0.158,0.623-0.201,1.252-0.246,1.919c-0.047,0.682-0.095,1.386-0.275,2.098 c-0.199,0.783-0.379,1.667,0.016,2.239c0.126,0.184,1.121,0.109,1.448,0.084c0.263-0.02,0.51-0.035,0.693-0.032 c0.316,0.008,0.469,0.004,0.614-0.001c0.175-0.005,0.342-0.01,0.714,0.003c2.277,0.081,4.167-0.055,5.996-0.185 c1.983-0.142,3.854-0.274,6.136-0.153c2.031,0.111,4.115,0.056,6.127,0.005c2.316-0.059,4.711-0.121,7.074,0.063 c0.629,0.048,1.275,0.068,1.666-0.259c0.313-0.262,0.452-0.746,0.578-1.261c0.383-1.562,1.377-5.611,0.631-6.47 c-0.052-0.061-0.13-0.116-0.303-0.095l-0.06,0.006l-0.06-0.008c-1.681-0.231-3.07-0.079-4.541,0.082 c-1.104,0.122-2.25,0.247-3.572,0.217l-9.225-0.203c-1.869-0.041-3.566-0.038-5.269-0.036c-1.706,0.004-3.413,0.006-5.292-0.036 l-0.389-0.015C12.968,6.996,12.782,6.987,12.602,6.987z"/><g><path fill="#ef4754" d="M11.713,20.4c-0.518-0.003-1.065,0.002-1.509,0.268c-0.699,0.42-0.9,1.325-1.035,2.13 c-0.723,4.299-1.548,8.133-2.271,12.432c-0.352,2.094-1.968,6.585,0.378,6.489c11.202-0.814,20.092,1.095,30.786,0.358 c0.394-0.027,0.834-0.008,1.119-0.281c0.277-0.265,0.316-0.688,0.337-1.071c0.137-2.482,1.54-7.112-0.614-7.112 c-6.765,0.457-11.342-1.286-18.479-0.718c-1.349-0.284-0.172-4.125,0.814-4.069c6.047,0.021,11.151,0.355,17.198,0.376 c0.479,0.002,1.126-0.326,1.456-0.673c0.272-0.286,0.322-0.71,0.358-1.103c0.11-1.195,0.22-2.39,0.33-3.586l0.204-2.215 c0.08-0.871-0.614-1.626-1.489-1.606c-0.6,0.014-1.258-0.096-1.542-0.098c-1.213-0.007-2.479-0.212-3.693-0.219 c-4.834-0.029-9.459,0.775-14.293,0.746C17.084,20.433,14.398,20.4,11.713,20.4z"/><path fill="#010101" d="M32.82,42.749c-3.341,0-6.559-0.185-9.707-0.364c-4.978-0.285-10.124-0.581-15.801-0.166 c-0.701,0.022-1.117-0.272-1.33-0.53c-0.843-1.019-0.333-3.196,0.116-5.119c0.124-0.529,0.239-1.021,0.307-1.423 c0.362-2.153,0.756-4.223,1.137-6.225c0.38-1.997,0.773-4.062,1.134-6.207c0.155-0.921,0.395-1.949,1.271-2.476 c0.576-0.346,1.266-0.343,1.769-0.339c1.791,0,3.582,0.014,5.373,0.029l2.685,0.02c2.396,0.012,4.788-0.182,7.103-0.372 c2.337-0.191,4.765-0.382,7.19-0.375c0.627,0.004,1.268,0.059,1.887,0.111c0.6,0.051,1.22,0.104,1.806,0.108 c0.117,0.001,0.292,0.017,0.499,0.038c0.305,0.031,0.691,0.069,1.028,0.06c0.569,0.006,1.094,0.215,1.475,0.622 c0.384,0.412,0.575,0.969,0.523,1.53l-0.533,5.8c-0.036,0.39-0.09,0.979-0.495,1.403c-0.382,0.401-1.146,0.827-1.813,0.827 c-0.002,0-0.004,0-0.006,0c-3.03-0.011-5.868-0.101-8.613-0.188c-2.737-0.087-5.568-0.178-8.585-0.188 c-0.308,0.1-0.976,1.498-0.917,2.554c0.006,0.104,0.034,0.426,0.167,0.509c3.675-0.281,6.701,0.042,9.629,0.354 c2.837,0.303,5.516,0.59,8.754,0.371c0.002,0,0.004,0,0.006,0c0.507,0,0.907,0.175,1.191,0.505c0.819,0.951,0.509,3.029,0.208,5.04 c-0.116,0.771-0.225,1.501-0.258,2.094c-0.021,0.37-0.056,0.988-0.49,1.405c-0.38,0.362-0.873,0.388-1.271,0.408l-0.16,0.01 C36.301,42.7,34.544,42.749,32.82,42.749z M13.189,41.014c3.464,0,6.758,0.188,9.981,0.373c4.959,0.283,9.644,0.553,14.857,0.191 l0.177-0.01c0.256-0.014,0.521-0.027,0.631-0.133c0.139-0.133,0.167-0.438,0.184-0.738c0.035-0.639,0.147-1.391,0.267-2.187 c0.229-1.534,0.544-3.636,0.023-4.239c-0.063-0.073-0.167-0.158-0.405-0.158c-3.292,0.225-6.14-0.081-8.895-0.376 c-2.909-0.311-5.916-0.632-9.544-0.345l-0.072,0.006l-0.07-0.015c-0.765-0.16-1.127-0.971-0.969-2.167 c0.158-1.2,0.827-2.946,1.913-2.89c3.004,0.01,5.842,0.1,8.587,0.188c2.737,0.087,5.568,0.178,8.585,0.188c0.001,0,0.001,0,0.002,0 c0.313,0,0.832-0.246,1.09-0.518c0.152-0.159,0.192-0.472,0.223-0.805l0.533-5.8c0.025-0.277-0.068-0.552-0.259-0.756 c-0.189-0.203-0.49-0.328-0.72-0.304c-0.412,0.012-0.821-0.031-1.151-0.065c-0.169-0.017-0.311-0.032-0.406-0.033 c-0.625-0.004-1.266-0.059-1.884-0.111c-0.601-0.051-1.221-0.104-1.808-0.108c-2.394-0.016-4.788,0.182-7.103,0.372 c-2.336,0.192-4.745,0.4-7.19,0.375l-2.687-0.02c-1.789-0.015-3.578-0.029-5.367-0.029H11.71c-0.516-0.006-0.936,0.009-1.248,0.197 c-0.513,0.308-0.682,1.083-0.8,1.784c-0.362,2.155-0.757,4.225-1.138,6.228c-0.38,1.996-0.772,4.06-1.133,6.203 c-0.07,0.419-0.189,0.932-0.319,1.485c-0.337,1.44-0.846,3.617-0.319,4.254c0.065,0.078,0.209,0.188,0.503,0.168 C9.297,41.071,11.27,41.014,13.189,41.014z"/></g></svg>